<?xml version="1.0" encoding="UTF-8"?>
<svg id="Layer_1" xmlns="http://www.w3.org/2000/svg" version="1.1" viewBox="0 0 135 130.5">
  <!-- Generator: Adobe Illustrator 29.0.1, SVG Export Plug-In . SVG Version: 2.1.0 Build 192)  -->
  <defs>
    <style>
      .st0 {
        fill: none;
      }

      .st1 {
        fill: #e53a36;
      }
    </style>
  </defs>
  <g>
    <path class="st0" d="M87.1,102.5c.1,1.7-1.9,1.4-1.8,3.1,2.2,4.2,6.7,6,8.8,10.2-4.2-.4-6.7-6.2-10.6-8.4,1-.8-.1-3.6.9-4.4,1.4.3,1.3-.8,2.7-.5Z"/>
    <path d="M7.1,27c1.7,0,4.8,2.6,7.5,3.1-3-3-6.6-5.5-8.8-9.3.8-1.3,1.6,1,3.1.4-1.3-1.2-4.3-6.4-1.3-9.7,2,8.6,7.5,13.7,13.7,18.1-5-4.6-10.3-12.7-10.6-23.4,4,9.6,8.4,18.7,16.4,24.3-5.1-5.7-10.7-14.7-10.6-27,3.8,11.6,8,22.6,17.2,28.7-4.5-6.6-10-13.7-7.1-25.2,0,10.1,6.1,19.5,11.5,26.5-.5-2.9-4.2-8.7-3.1-13.3,3.4,11.8,10.1,20.2,20.3,25.2,1-2,2.3-3.6,3.5-5.3.5,6.7,5.1,9.4,10.2,11.5,3.6,5.4,11.7,6.2,16.4,10.6.5-1.6,1.8-4.2,4-2.7-.4-2.6.8-3.6,1.8-4.9,1.2-.4,1.1.6,2.2.4-1.2-2.8,1-3.7,1.8-5.7,1.2-.4,1.1.6,2.2.4.6-3.1.1-7.3,3.1-8-.1,2.6,1.3,3.7,2.2,5.3,1.6-6.5,2.6-13.6,6.6-17.7,1,5.3-1.2,11.2-.4,17.7,3.9-6.4,1.2-19.4,8-23-.1,6.6-1.4,11.9-.9,19,2.7-6.8,1.5-17.7,7.1-21.7.7,6.2-1.6,13.1-1.3,20.3,2.8-6.7,2.5-16.6,8-20.8,1.7,4.3-.9,11.7-1.8,16.4.3,1.3.9-.4,1.8,0,.8,8.5-2.3,16.5-8,19.9.2,1,2.2.2,3.1.4-.9,3.8-8.4,1.1-8.4,5.7-2.9,0-3.8,2.1-5.3,3.5,2.5,4.3,8.1,6.7,10.2,11.9.4,1.1.1,2.7.4,4,1,3.4,5.2,6.1,3.1,11.9-3.1-7-11.9-8.4-18.6-11.9-6.3,3.4-8.3,11.1-11.5,17.7-.9-1.4-3.9.9-4.9,2.2-1.8,8.9,7.9,8.8,7.5,17.7,0,1.3,1.1,1.5,1.3,2.7-.1,1.6.3,3.6-1.3,3.5.6-.5,1-2.9-.9-2.2.1-2-.3-6.6-2.7-7.5-1,1.7,1.6,5.4-.4,7.1-.5-1.2,0-5.1-1.3-6.6-2,.2-1.1,2-.9,3.5-.7-.4-1-1.1-.9-2.2-1.2,1-2.4-.1-2.7,2.2-1.6-2,1.6-2.8,2.2-4-.3-.9-.8-1.5-1.8-1.8-1,.2-2.1.3-1.8,1.8-.6,0-1.4-1.9-1.3,0-1-1.3,1.7-2.7,3.5-2.7-2-3.8-6.2-5.3-8.4-8.8-1.5,1-3,2-5.3,2.2v-1.8c-3.9.8-5.1,4.4-9.7,4.4-.3-1.4,1.2-.8.9-2.2-6.2,2.5-11.1,6.3-17.7,8.4.2-.6.8-.7.9-1.3-4.3-.1-5.2,3-9.3,3.1v-1.8c-2.1,1.3-1.9-2.2-3.5-1.3.8-3.4,4.8-3.7,6.6-6.2-.9-.3-4.2.8-5.3,1.8-.2-1.7,3.5-3.2,5.7-4-.4-1-2.3,0-2.7.4-.4-2.7,4.7-3.8,7.5-4.9-.8-1-2.5.7-4,.4,6-6.4,20-4.7,25.2-11.9-.1-.4-1.6-1.5-1.8-.4-.4-4.2,5.4-6.1,6.6-10.2-6.5,2.2-17.1,4.1-19.9-4.4-3.2.5-5.8-1.7-4.9-4-1.8.2-3-.2-4-.9-.4-.9-1.4-2.1-.4-3.1-2.5.4-3.5-.6-4.9-1.3-.1-1-.9-1.8,0-2.7-1.7-1.1-4.7-.9-5.7-2.7-.1-1.7,1.9-1.4,1.8-3.1-4-1.1-8.8-1.5-11.5-4-.1-.8.5-.9.4-1.8-2.1-1.6-5.6-1.8-6.2-4.9.6-.2,2.3.5,2.2-.4-2.4-.6-4.4-1.5-6.2-2.7-.3-1.5,1.8-.6,1.3-2.2-2.2-1.2-4.6-2.2-5.7-4.4,2.5,1.5,5.9,1.3,9.3.9-2.6-3-9.3-6.6-12.6-11.2ZM85.3,105.6c-.1-1.7,1.9-1.4,1.8-3.1-1.4-.3-1.3.8-2.7.5-1,.8.1,3.6-.9,4.4,3.9,2.2,6.4,8,10.6,8.4"/>
  </g>
  <path class="st1" d="M116.7,80.8c-.5.6-1.6.5-2.5-.2s-1.2-1.8-.7-2.4,1.6-.5,2.5.3c.9.6,1.2,1.8.7,2.3Z"/>
</svg>